<?xml version="1.0" standalone="no"?>
<!DOCTYPE svg PUBLIC "-//W3C//DTD SVG 20010904//EN"
 "http://www.w3.org/TR/2001/REC-SVG-20010904/DTD/svg10.dtd">
<svg version="1.0" xmlns="http://www.w3.org/2000/svg"
 width="2000.000000pt" height="542.000000pt" viewBox="0 0 2000.000000 542.000000"
 preserveAspectRatio="xMidYMid meet">

<g transform="translate(0.000000,542.000000) scale(0.100000,-0.100000)"
fill="#000000" stroke="none">
<path d="M19315 5146 c-79 -20 -146 -59 -203 -120 -80 -84 -97 -129 -97 -256
0 -93 3 -111 27 -162 36 -77 112 -152 196 -191 63 -30 74 -32 178 -32 107 0
112 1 186 38 148 73 222 189 222 347 1 75 -3 93 -31 152 -84 180 -283 272
-478 224z m262 -60 c73 -33 153 -112 186 -183 17 -37 22 -67 22 -133 0 -104
-28 -174 -100 -245 -181 -182 -507 -127 -613 104 -37 80 -37 192 0 272 45 99
127 171 231 205 70 23 200 13 274 -20z"/>
<path d="M19290 4755 c0 -149 2 -175 15 -175 12 0 15 16 15 80 l0 80 70 0 c74
0 123 -17 134 -45 3 -9 6 -32 6 -50 0 -43 9 -65 26 -65 23 0 19 112 -5 141
-19 24 -19 24 4 49 37 40 37 99 0 135 -23 24 -30 25 -145 25 l-120 0 0 -175z
m240 125 c27 -27 25 -56 -5 -86 -23 -23 -31 -25 -112 -22 l-88 3 -3 49 c-5 76
-4 76 98 76 77 0 93 -3 110 -20z"/>
<path d="M3351 4908 c-5 -13 -50 -135 -101 -273 -50 -137 -431 -1166 -846
-2287 -415 -1120 -754 -2039 -754 -2042 0 -3 313 -5 696 -4 l697 3 74 170 c41
94 78 174 83 178 4 5 14 -8 20 -30 41 -124 195 -254 394 -333 342 -135 795
-134 1200 1 318 106 591 277 855 534 257 250 452 527 649 920 281 562 304
1131 64 1539 -55 93 -180 229 -267 291 -223 160 -527 223 -858 180 -251 -33
-502 -114 -784 -254 -95 -48 -173 -83 -173 -79 0 3 123 344 274 757 l273 751
-744 0 -743 0 -9 -22z m1374 -2162 c216 -57 327 -213 328 -461 0 -257 -112
-509 -317 -710 -279 -274 -650 -387 -881 -267 -272 140 -301 518 -68 889 170
272 404 471 633 540 88 26 227 30 305 9z"/>
<path d="M7740 4863 c-12 -32 -397 -1064 -855 -2293 -458 -1229 -836 -2243
-840 -2253 -7 -16 31 -17 735 -15 l742 3 849 2270 c467 1249 856 2287 864
2308 l15 37 -744 0 -745 0 -21 -57z"/>
<path d="M1530 3737 c-37 -12 -99 -69 -770 -714 -255 -245 -404 -394 -419
-423 -48 -87 -28 -172 50 -213 30 -16 58 -18 267 -15 l234 3 24 -28 c19 -23
24 -39 24 -87 0 -53 -37 -159 -349 -1007 l-349 -948 55 -3 c31 -2 59 1 63 5 9
10 683 1850 699 1908 26 95 8 181 -48 228 -49 41 -90 47 -318 47 -116 0 -218
3 -227 6 -26 10 -19 48 16 92 58 71 1018 986 1063 1012 35 20 48 23 71 15 61
-21 65 -38 157 -803 94 -773 94 -762 32 -762 -35 0 -36 1 -255 172 -122 96
-166 115 -228 99 -40 -11 -107 -73 -136 -126 -9 -16 -166 -442 -350 -945 -184
-503 -338 -923 -341 -932 -6 -16 0 -18 54 -18 34 0 61 1 61 3 0 19 675 1828
689 1847 10 14 30 29 45 35 37 13 81 -13 246 -143 72 -57 146 -110 165 -118
49 -20 95 -17 145 9 52 27 80 75 80 136 0 80 -175 1499 -191 1549 -33 102
-148 154 -259 119z"/>
<path d="M15570 3709 c-299 -34 -641 -165 -967 -370 -51 -32 -93 -53 -93 -46
0 7 15 74 34 150 l33 137 -690 -2 -689 -3 -599 -1630 c-329 -896 -599 -1633
-599 -1637 0 -5 330 -8 733 -8 l732 0 385 1022 c421 1117 403 1077 527 1187
187 167 457 203 597 79 64 -55 89 -114 89 -202 -1 -68 -16 -111 -373 -1071
-205 -550 -374 -1003 -377 -1007 -2 -5 342 -8 765 -8 l768 0 279 742 c460
1230 469 1251 519 1323 60 84 124 137 221 186 245 122 494 69 556 -118 7 -23
10 -70 6 -127 -5 -89 -11 -107 -346 -1026 -188 -514 -346 -945 -351 -957 l-10
-23 743 0 742 0 422 1138 c233 625 430 1169 439 1207 22 97 15 283 -16 380
-98 310 -351 537 -695 625 -451 115 -1049 -37 -1637 -416 l-67 -43 -32 62
c-168 333 -575 510 -1049 456z"/>
<path d="M8666 2475 c-230 -613 -430 -1159 -444 -1213 -22 -85 -25 -119 -26
-277 -1 -162 1 -187 22 -255 51 -161 135 -286 253 -374 420 -316 1179 -229
1862 212 38 24 70 42 72 40 3 -2 -13 -70 -35 -152 -22 -81 -40 -149 -40 -152
0 -2 298 -3 662 -2 l662 3 603 1615 c332 888 606 1625 609 1638 l6 22 -707 -2
-708 -3 -338 -875 c-431 -1114 -402 -1043 -453 -1114 -205 -287 -662 -422
-841 -249 -63 61 -79 111 -79 233 l1 105 358 940 c196 517 360 948 362 958 5
16 -32 17 -688 17 l-694 0 -419 -1115z"/>
</g>
</svg>
